<?xml version="1.0" encoding="UTF-8" standalone="no"?>
<!DOCTYPE svg PUBLIC "-//W3C//DTD SVG 1.1//EN"
 "http://www.w3.org/Graphics/SVG/1.1/DTD/svg11.dtd">
<!-- Generated by graphviz version 2.38.0 (20140413.2041)
 -->
<!-- Title: G Pages: 1 -->
<svg width="2548pt" height="486pt"
 viewBox="0.00 0.00 2548.00 486.00" xmlns="http://www.w3.org/2000/svg" xmlns:xlink="http://www.w3.org/1999/xlink">
<g id="graph0" class="graph" transform="scale(1 1) rotate(0) translate(4 482)">
<title>G</title>
<polygon fill="white" stroke="none" points="-4,4 -4,-482 2544,-482 2544,4 -4,4"/>
<text text-anchor="middle" x="1270" y="-7.8" font-family="FangSong" font-size="14.00">说明:每一个节点描述量:C代表发令者,总数代表所有不管是忠诚还是背叛的将军数，叛徒数m </text>
<g id="clust1" class="cluster"><title>cluster_om3</title>
<polygon fill="none" stroke="black" points="8,-31 8,-470 2532,-470 2532,-31 8,-31"/>
</g>
<g id="clust2" class="cluster"><title>cluster_m31</title>
<polygon fill="none" stroke="black" points="16,-39 16,-365 1360,-365 1360,-39 16,-39"/>
</g>
<g id="clust3" class="cluster"><title>cluster_m311</title>
<polygon fill="none" stroke="black" points="24,-47 24,-252.5 684,-252.5 684,-47 24,-47"/>
</g>
<g id="clust4" class="cluster"><title>cluster_m3111</title>
<polygon fill="none" stroke="black" points="32,-55 32,-140 350,-140 350,-55 32,-55"/>
</g>
<g id="clust5" class="cluster"><title>cluster_m3112</title>
<polygon fill="none" stroke="black" points="358,-55 358,-140 676,-140 676,-55 358,-55"/>
</g>
<g id="clust6" class="cluster"><title>cluster_m312</title>
<polygon fill="none" stroke="black" points="692,-47 692,-260 1352,-260 1352,-47 692,-47"/>
</g>
<g id="clust7" class="cluster"><title>cluster_m3121</title>
<polygon fill="none" stroke="black" points="700,-55 700,-140 1018,-140 1018,-55 700,-55"/>
</g>
<g id="clust8" class="cluster"><title>cluster_m3112</title>
<polygon fill="none" stroke="black" points="1026,-55 1026,-140 1344,-140 1344,-55 1026,-55"/>
</g>
<g id="clust9" class="cluster"><title>cluster_m32</title>
<polygon fill="none" stroke="black" points="1368,-39 1368,-365 2524,-365 2524,-39 1368,-39"/>
</g>
<g id="clust10" class="cluster"><title>cluster_m321</title>
<polygon fill="none" stroke="black" points="1376,-47 1376,-252.5 2036,-252.5 2036,-47 1376,-47"/>
</g>
<g id="clust11" class="cluster"><title>cluster_m3211</title>
<polygon fill="none" stroke="black" points="1384,-55 1384,-140 1702,-140 1702,-55 1384,-55"/>
</g>
<g id="clust12" class="cluster"><title>cluster_m3212</title>
<polygon fill="none" stroke="black" points="1710,-55 1710,-140 2028,-140 2028,-55 1710,-55"/>
</g>
<g id="clust13" class="cluster"><title>cluster_m322</title>
<polygon fill="none" stroke="black" points="2044,-54.5 2044,-252.5 2516,-252.5 2516,-54.5 2044,-54.5"/>
</g>
<g id="clust14" class="cluster"><title>cluster_m3121</title>
<polygon fill="none" stroke="black" points="2052,-62.5 2052,-132.5 2280,-132.5 2280,-62.5 2052,-62.5"/>
</g>
<g id="clust15" class="cluster"><title>cluster_m3112</title>
<polygon fill="none" stroke="black" points="2288,-62.5 2288,-132.5 2508,-132.5 2508,-62.5 2288,-62.5"/>
</g>
<!-- m1 -->
<g id="node1" class="node"><title>m1</title>
<polygon fill="lightgrey" stroke="black" points="1103,-408.5 1103,-461.5 1269,-461.5 1269,-408.5 1103,-408.5"/>
<text text-anchor="middle" x="1186" y="-446.3" font-family="FangSong" font-size="14.00">1:在OM(m=3)的过程中 </text>
<text text-anchor="middle" x="1186" y="-431.3" font-family="FangSong" font-size="14.00"> C为忠诚将军 </text>
<text text-anchor="middle" x="1186" y="-416.3" font-family="FangSong" font-size="14.00"> 总数=10 叛徒m=3个</text>
</g>
<!-- m11 -->
<g id="node2" class="node"><title>m11</title>
<polygon fill="lightgrey" stroke="black" points="891,-303.5 891,-356.5 1065,-356.5 1065,-303.5 891,-303.5"/>
<text text-anchor="middle" x="978" y="-341.3" font-family="FangSong" font-size="14.00">1.1:在OM(m=2)的过程中</text>
<text text-anchor="middle" x="978" y="-326.3" font-family="FangSong" font-size="14.00">C为忠诚将军 </text>
<text text-anchor="middle" x="978" y="-311.3" font-family="FangSong" font-size="14.00"> 总数=9,叛徒数3</text>
</g>
<!-- m1&#45;&gt;m11 -->
<g id="edge1" class="edge"><title>m1&#45;&gt;m11</title>
<path fill="none" stroke="black" d="M1134.32,-408.407C1105.42,-394.099 1069.24,-376.183 1038.97,-361.191"/>
<polygon fill="black" stroke="black" points="1040.29,-357.941 1029.78,-356.64 1037.19,-364.214 1040.29,-357.941"/>
<text text-anchor="middle" x="1159" y="-378.8" font-family="FangSong" font-size="14.00">一类是C为忠诚下属</text>
</g>
<!-- m12 -->
<g id="node3" class="node"><title>m12</title>
<polygon fill="lightgrey" stroke="black" points="1575,-303.5 1575,-356.5 1749,-356.5 1749,-303.5 1575,-303.5"/>
<text text-anchor="middle" x="1662" y="-341.3" font-family="FangSong" font-size="14.00">1.2:在OM(m=2)的过程中</text>
<text text-anchor="middle" x="1662" y="-326.3" font-family="FangSong" font-size="14.00">,C为叛徒 </text>
<text text-anchor="middle" x="1662" y="-311.3" font-family="FangSong" font-size="14.00"> 总数9,叛徒数3</text>
</g>
<!-- m1&#45;&gt;m12 -->
<g id="edge2" class="edge"><title>m1&#45;&gt;m12</title>
<path fill="none" stroke="black" d="M1269.19,-416C1351.68,-398.148 1478.02,-370.81 1565.03,-351.983"/>
<polygon fill="black" stroke="black" points="1565.88,-355.381 1574.91,-349.845 1564.4,-348.539 1565.88,-355.381"/>
<text text-anchor="middle" x="1517" y="-378.8" font-family="FangSong" font-size="14.00">一类是C为叛徒下属</text>
</g>
<!-- m111 -->
<g id="node4" class="node"><title>m111</title>
<polygon fill="lightgrey" stroke="black" points="419,-191 419,-244 615,-244 615,-191 419,-191"/>
<text text-anchor="middle" x="517" y="-228.8" font-family="FangSong" font-size="14.00">1.1.1:在OM(m=1)的过程中 </text>
<text text-anchor="middle" x="517" y="-213.8" font-family="FangSong" font-size="14.00">C为忠诚将军 </text>
<text text-anchor="middle" x="517" y="-198.8" font-family="FangSong" font-size="14.00"> 总数=8,叛徒数3</text>
</g>
<!-- m11&#45;&gt;m111 -->
<g id="edge3" class="edge"><title>m11&#45;&gt;m111</title>
<path fill="none" stroke="black" d="M890.731,-308.344C833.149,-294.688 756.058,-276.355 688,-260 667.614,-255.101 645.869,-249.846 624.958,-244.778"/>
<polygon fill="black" stroke="black" points="625.637,-241.342 615.094,-242.387 623.988,-248.145 625.637,-241.342"/>
<text text-anchor="middle" x="856" y="-273.8" font-family="FangSong" font-size="14.00">一类是C为忠诚下属</text>
</g>
<!-- m112 -->
<g id="node5" class="node"><title>m112</title>
<polygon fill="lightgrey" stroke="black" points="827.5,-183.5 827.5,-251.5 1128.5,-251.5 1128.5,-183.5 827.5,-183.5"/>
<text text-anchor="middle" x="978" y="-236.3" font-family="FangSong" font-size="14.00">1.1.2:在OM(m=1)的过程中</text>
<text text-anchor="middle" x="978" y="-221.3" font-family="FangSong" font-size="14.00">C为叛徒 </text>
<text text-anchor="middle" x="978" y="-206.3" font-family="FangSong" font-size="14.00"> 总数=8,叛徒数2 </text>
<text text-anchor="middle" x="978" y="-191.3" font-family="FangSong" font-size="14.00"> 注意:为什么在OM(1)里面叛徒数还是2呢？</text>
</g>
<!-- m11&#45;&gt;m112 -->
<g id="edge4" class="edge"><title>m11&#45;&gt;m112</title>
<path fill="none" stroke="black" d="M978,-303.371C978,-290.956 978,-275.707 978,-261.577"/>
<polygon fill="black" stroke="black" points="981.5,-261.541 978,-251.541 974.5,-261.541 981.5,-261.541"/>
<text text-anchor="middle" x="1042" y="-273.8" font-family="FangSong" font-size="14.00">一类是C为叛徒下属</text>
</g>
<!-- m121 -->
<g id="node10" class="node"><title>m121</title>
<polygon fill="lightgrey" stroke="black" points="1564,-191 1564,-244 1760,-244 1760,-191 1564,-191"/>
<text text-anchor="middle" x="1662" y="-228.8" font-family="FangSong" font-size="14.00">1.2.1:在OM(m=1)的过程中 </text>
<text text-anchor="middle" x="1662" y="-213.8" font-family="FangSong" font-size="14.00">C为忠诚将军 </text>
<text text-anchor="middle" x="1662" y="-198.8" font-family="FangSong" font-size="14.00"> 总数=8,叛徒数2</text>
</g>
<!-- m12&#45;&gt;m121 -->
<g id="edge9" class="edge"><title>m12&#45;&gt;m121</title>
<path fill="none" stroke="black" d="M1662,-303.371C1662,-288.832 1662,-270.407 1662,-254.443"/>
<polygon fill="black" stroke="black" points="1665.5,-254.372 1662,-244.372 1658.5,-254.372 1665.5,-254.372"/>
<text text-anchor="middle" x="1726" y="-273.8" font-family="FangSong" font-size="14.00">一类是C为忠诚下属</text>
</g>
<!-- m122 -->
<g id="node11" class="node"><title>m122</title>
<polygon fill="lightgrey" stroke="black" points="2071.5,-191 2071.5,-244 2260.5,-244 2260.5,-191 2071.5,-191"/>
<text text-anchor="middle" x="2166" y="-228.8" font-family="FangSong" font-size="14.00">1.2.2:在OM(m=1)的过程中</text>
<text text-anchor="middle" x="2166" y="-213.8" font-family="FangSong" font-size="14.00">C为叛徒 </text>
<text text-anchor="middle" x="2166" y="-198.8" font-family="FangSong" font-size="14.00"> 总数=8,叛徒数2</text>
</g>
<!-- m12&#45;&gt;m122 -->
<g id="edge10" class="edge"><title>m12&#45;&gt;m122</title>
<path fill="none" stroke="black" d="M1749.06,-316.596C1826.15,-304.786 1941.41,-285.106 2040,-260 2054.56,-256.293 2069.87,-251.782 2084.62,-247.117"/>
<polygon fill="black" stroke="black" points="2085.76,-250.426 2094.21,-244.035 2083.62,-243.761 2085.76,-250.426"/>
<text text-anchor="middle" x="2054" y="-273.8" font-family="FangSong" font-size="14.00">一类是C为叛徒下属</text>
</g>
<!-- m1111 -->
<g id="node6" class="node"><title>m1111</title>
<polygon fill="lightgrey" stroke="black" points="40.5,-63.5 40.5,-131.5 341.5,-131.5 341.5,-63.5 40.5,-63.5"/>
<text text-anchor="middle" x="191" y="-116.3" font-family="FangSong" font-size="14.00">1.1.1.1:在OM(m=0)的过程中 </text>
<text text-anchor="middle" x="191" y="-101.3" font-family="FangSong" font-size="14.00">C为忠诚将军 </text>
<text text-anchor="middle" x="191" y="-86.3" font-family="FangSong" font-size="14.00"> 总数=7,叛徒数3 </text>
<text text-anchor="middle" x="191" y="-71.3" font-family="FangSong" font-size="14.00"> 注意:为什么在OM(0)里面叛徒数还是3呢？</text>
</g>
<!-- m111&#45;&gt;m1111 -->
<g id="edge5" class="edge"><title>m111&#45;&gt;m1111</title>
<path fill="none" stroke="black" d="M446.263,-190.896C401.138,-174.562 341.946,-153.137 291.924,-135.031"/>
<polygon fill="black" stroke="black" points="292.967,-131.686 282.373,-131.574 290.585,-138.268 292.967,-131.686"/>
<text text-anchor="middle" x="438" y="-153.8" font-family="FangSong" font-size="14.00">一类是C为忠诚下属</text>
</g>
<!-- m1112 -->
<g id="node7" class="node"><title>m1112</title>
<polygon fill="lightgrey" stroke="black" points="366.5,-63.5 366.5,-131.5 667.5,-131.5 667.5,-63.5 366.5,-63.5"/>
<text text-anchor="middle" x="517" y="-116.3" font-family="FangSong" font-size="14.00">1.1.1.2:在OM(m=0)的过程中</text>
<text text-anchor="middle" x="517" y="-101.3" font-family="FangSong" font-size="14.00">C为叛徒 </text>
<text text-anchor="middle" x="517" y="-86.3" font-family="FangSong" font-size="14.00"> 总数=7,叛徒数3 </text>
<text text-anchor="middle" x="517" y="-71.3" font-family="FangSong" font-size="14.00"> 注意:为什么在OM(0)里面叛徒数还是3呢？</text>
</g>
<!-- m111&#45;&gt;m1112 -->
<g id="edge6" class="edge"><title>m111&#45;&gt;m1112</title>
<path fill="none" stroke="black" d="M517,-190.896C517,-176.526 517,-158.215 517,-141.69"/>
<polygon fill="black" stroke="black" points="520.5,-141.684 517,-131.684 513.5,-141.684 520.5,-141.684"/>
<text text-anchor="middle" x="581" y="-153.8" font-family="FangSong" font-size="14.00">一类是C为叛徒下属</text>
</g>
<!-- m1121 -->
<g id="node8" class="node"><title>m1121</title>
<polygon fill="lightgrey" stroke="black" points="708.5,-63.5 708.5,-131.5 1009.5,-131.5 1009.5,-63.5 708.5,-63.5"/>
<text text-anchor="middle" x="859" y="-116.3" font-family="FangSong" font-size="14.00">1.1.2.1:在OM(m=0)的过程中 </text>
<text text-anchor="middle" x="859" y="-101.3" font-family="FangSong" font-size="14.00">C为忠诚将军 </text>
<text text-anchor="middle" x="859" y="-86.3" font-family="FangSong" font-size="14.00"> 总数=7,叛徒数1 </text>
<text text-anchor="middle" x="859" y="-71.3" font-family="FangSong" font-size="14.00"> 注意:为什么在OM(0)里面叛徒数还是1呢？</text>
</g>
<!-- m112&#45;&gt;m1121 -->
<g id="edge7" class="edge"><title>m112&#45;&gt;m1121</title>
<path fill="none" stroke="black" d="M944.535,-183.316C930.72,-169.617 914.571,-153.604 900.05,-139.205"/>
<polygon fill="black" stroke="black" points="902.191,-136.399 892.626,-131.843 897.262,-141.37 902.191,-136.399"/>
<text text-anchor="middle" x="990" y="-153.8" font-family="FangSong" font-size="14.00">一类是C为忠诚下属</text>
</g>
<!-- m1122 -->
<g id="node9" class="node"><title>m1122</title>
<polygon fill="lightgrey" stroke="black" points="1034.5,-63.5 1034.5,-131.5 1335.5,-131.5 1335.5,-63.5 1034.5,-63.5"/>
<text text-anchor="middle" x="1185" y="-116.3" font-family="FangSong" font-size="14.00">1.1.2.2:在OM(m=0)的过程中</text>
<text text-anchor="middle" x="1185" y="-101.3" font-family="FangSong" font-size="14.00">C为叛徒 </text>
<text text-anchor="middle" x="1185" y="-86.3" font-family="FangSong" font-size="14.00"> 总数=7,叛徒数1 </text>
<text text-anchor="middle" x="1185" y="-71.3" font-family="FangSong" font-size="14.00"> 注意:为什么在OM(0)里面叛徒数还是1呢？</text>
</g>
<!-- m112&#45;&gt;m1122 -->
<g id="edge8" class="edge"><title>m112&#45;&gt;m1122</title>
<path fill="none" stroke="black" d="M1035.94,-183.474C1061.51,-168.895 1091.72,-151.672 1118.24,-136.557"/>
<polygon fill="black" stroke="black" points="1120.12,-139.512 1127.08,-131.519 1116.66,-133.43 1120.12,-139.512"/>
<text text-anchor="middle" x="1158" y="-153.8" font-family="FangSong" font-size="14.00">一类是C为叛徒下属</text>
</g>
<!-- m1211 -->
<g id="node12" class="node"><title>m1211</title>
<polygon fill="lightgrey" stroke="black" points="1392.5,-63.5 1392.5,-131.5 1693.5,-131.5 1693.5,-63.5 1392.5,-63.5"/>
<text text-anchor="middle" x="1543" y="-116.3" font-family="FangSong" font-size="14.00">1.2.1.1:在OM(m=0)的过程中 </text>
<text text-anchor="middle" x="1543" y="-101.3" font-family="FangSong" font-size="14.00">C为忠诚将军 </text>
<text text-anchor="middle" x="1543" y="-86.3" font-family="FangSong" font-size="14.00"> 总数=7,叛徒数2 </text>
<text text-anchor="middle" x="1543" y="-71.3" font-family="FangSong" font-size="14.00"> 注意:为什么在OM(0)里面叛徒数还是2呢？</text>
</g>
<!-- m121&#45;&gt;m1211 -->
<g id="edge11" class="edge"><title>m121&#45;&gt;m1211</title>
<path fill="none" stroke="black" d="M1636.18,-190.896C1620.87,-175.712 1601.12,-156.129 1583.74,-138.903"/>
<polygon fill="black" stroke="black" points="1586.03,-136.239 1576.46,-131.684 1581.1,-141.21 1586.03,-136.239"/>
<text text-anchor="middle" x="1674" y="-153.8" font-family="FangSong" font-size="14.00">一类是C为忠诚下属</text>
</g>
<!-- m1212 -->
<g id="node13" class="node"><title>m1212</title>
<polygon fill="lightgrey" stroke="black" points="1718.5,-63.5 1718.5,-131.5 2019.5,-131.5 2019.5,-63.5 1718.5,-63.5"/>
<text text-anchor="middle" x="1869" y="-116.3" font-family="FangSong" font-size="14.00">1.2.1.2:在OM(m=0)的过程中</text>
<text text-anchor="middle" x="1869" y="-101.3" font-family="FangSong" font-size="14.00">C为叛徒 </text>
<text text-anchor="middle" x="1869" y="-86.3" font-family="FangSong" font-size="14.00"> 总数=7,叛徒数2 </text>
<text text-anchor="middle" x="1869" y="-71.3" font-family="FangSong" font-size="14.00"> 注意:为什么在OM(0)里面叛徒数还是2呢？</text>
</g>
<!-- m121&#45;&gt;m1212 -->
<g id="edge12" class="edge"><title>m121&#45;&gt;m1212</title>
<path fill="none" stroke="black" d="M1706.92,-190.896C1734.62,-175.102 1770.68,-154.549 1801.75,-136.838"/>
<polygon fill="black" stroke="black" points="1803.83,-139.677 1810.79,-131.684 1800.37,-133.595 1803.83,-139.677"/>
<text text-anchor="middle" x="1842" y="-153.8" font-family="FangSong" font-size="14.00">一类是C为叛徒下属</text>
</g>
<!-- m1221 -->
<g id="node14" class="node"><title>m1221</title>
<polygon fill="lightgrey" stroke="black" points="2060.5,-71 2060.5,-124 2271.5,-124 2271.5,-71 2060.5,-71"/>
<text text-anchor="middle" x="2166" y="-108.8" font-family="FangSong" font-size="14.00">1.2.2.1:在OM(m=0)的过程中 </text>
<text text-anchor="middle" x="2166" y="-93.8" font-family="FangSong" font-size="14.00">C为忠诚将军 </text>
<text text-anchor="middle" x="2166" y="-78.8" font-family="FangSong" font-size="14.00"> 总数=7,叛徒数1</text>
</g>
<!-- m122&#45;&gt;m1221 -->
<g id="edge13" class="edge"><title>m122&#45;&gt;m1221</title>
<path fill="none" stroke="black" d="M2166,-190.896C2166,-174.273 2166,-152.377 2166,-134.073"/>
<polygon fill="black" stroke="black" points="2169.5,-134.054 2166,-124.054 2162.5,-134.054 2169.5,-134.054"/>
<text text-anchor="middle" x="2230" y="-153.8" font-family="FangSong" font-size="14.00">一类是C为忠诚下属</text>
</g>
<!-- m1222 -->
<g id="node15" class="node"><title>m1222</title>
<polygon fill="lightgrey" stroke="black" points="2296,-71 2296,-124 2500,-124 2500,-71 2296,-71"/>
<text text-anchor="middle" x="2398" y="-108.8" font-family="FangSong" font-size="14.00">1.2.2.2:在OM(m=0)的过程中</text>
<text text-anchor="middle" x="2398" y="-93.8" font-family="FangSong" font-size="14.00">C为叛徒 </text>
<text text-anchor="middle" x="2398" y="-78.8" font-family="FangSong" font-size="14.00"> 总数=7,叛徒数1</text>
</g>
<!-- m122&#45;&gt;m1222 -->
<g id="edge14" class="edge"><title>m122&#45;&gt;m1222</title>
<path fill="none" stroke="black" d="M2239.86,-190.903C2259.15,-183.352 2279.67,-174.531 2298,-165 2317.55,-154.834 2338.01,-141.726 2355.29,-129.838"/>
<polygon fill="black" stroke="black" points="2357.29,-132.707 2363.5,-124.119 2353.29,-126.964 2357.29,-132.707"/>
<text text-anchor="middle" x="2387" y="-153.8" font-family="FangSong" font-size="14.00">一类是C为叛徒下属</text>
</g>
</g>
</svg>
