<?xml version="1.0" encoding="UTF-8" standalone="no"?>
<!DOCTYPE svg PUBLIC "-//W3C//DTD SVG 1.1//EN"
 "http://www.w3.org/Graphics/SVG/1.1/DTD/svg11.dtd">
<!-- Generated by graphviz version 2.38.0 (20140413.2041)
 -->
<!-- Title: G Pages: 1 -->
<svg width="1634pt" height="322pt"
 viewBox="0.00 0.00 1634.00 322.00" xmlns="http://www.w3.org/2000/svg" xmlns:xlink="http://www.w3.org/1999/xlink">
<g id="graph0" class="graph" transform="scale(1 1) rotate(0) translate(4 318)">
<title>G</title>
<polygon fill="white" stroke="none" points="-4,4 -4,-318 1630,-318 1630,4 -4,4"/>
<!-- L1 -->
<g id="node1" class="node"><title>L1</title>
<polygon fill="WHITE" stroke="black" points="609.5,-175.5 609.5,-313.5 926.5,-313.5 926.5,-175.5 609.5,-175.5"/>
<text text-anchor="middle" x="768" y="-298.3" font-family="FangSong" font-size="14.00">OM(1): L1</text>
<polyline fill="none" stroke="black" points="609.5,-290.5 926.5,-290.5 "/>
<text text-anchor="middle" x="768" y="-275.3" font-family="FangSong" font-size="14.00">received value:</text>
<polyline fill="none" stroke="black" points="609.5,-267.5 926.5,-267.5 "/>
<text text-anchor="middle" x="631" y="-252.3" font-family="FangSong" font-size="14.00">C:a</text>
<polyline fill="none" stroke="black" points="652.5,-244.5 652.5,-267.5 "/>
<text text-anchor="middle" x="678.5" y="-252.3" font-family="FangSong" font-size="14.00">L2 a</text>
<polyline fill="none" stroke="black" points="704.5,-244.5 704.5,-267.5 "/>
<text text-anchor="middle" x="730.5" y="-252.3" font-family="FangSong" font-size="14.00">L3 a</text>
<polyline fill="none" stroke="black" points="756.5,-244.5 756.5,-267.5 "/>
<text text-anchor="middle" x="782.5" y="-252.3" font-family="FangSong" font-size="14.00">L4 a</text>
<polyline fill="none" stroke="black" points="808.5,-244.5 808.5,-267.5 "/>
<text text-anchor="middle" x="838" y="-252.3" font-family="FangSong" font-size="14.00">L5 ?a</text>
<polyline fill="none" stroke="black" points="867.5,-244.5 867.5,-267.5 "/>
<text text-anchor="middle" x="897" y="-252.3" font-family="FangSong" font-size="14.00">L6 ?r</text>
<polyline fill="none" stroke="black" points="609.5,-244.5 926.5,-244.5 "/>
<text text-anchor="middle" x="768" y="-229.3" font-family="FangSong" font-size="14.00">majority(C=a,L2=a,L3=a,L4=a,L5=r,L6=r)=a</text>
<polyline fill="none" stroke="black" points="609.5,-221.5 926.5,-221.5 "/>
<text text-anchor="middle" x="768" y="-206.3" font-family="FangSong" font-size="14.00">calc value:</text>
<polyline fill="none" stroke="black" points="609.5,-198.5 926.5,-198.5 "/>
<text text-anchor="middle" x="632.5" y="-183.3" font-family="FangSong" font-size="14.00">C:a</text>
<polyline fill="none" stroke="black" points="655.5,-175.5 655.5,-198.5 "/>
<text text-anchor="middle" x="682.5" y="-183.3" font-family="FangSong" font-size="14.00">L2 a</text>
<polyline fill="none" stroke="black" points="709.5,-175.5 709.5,-198.5 "/>
<text text-anchor="middle" x="736.5" y="-183.3" font-family="FangSong" font-size="14.00">L3 a</text>
<polyline fill="none" stroke="black" points="763.5,-175.5 763.5,-198.5 "/>
<text text-anchor="middle" x="790.5" y="-183.3" font-family="FangSong" font-size="14.00">L4 a</text>
<polyline fill="none" stroke="black" points="817.5,-175.5 817.5,-198.5 "/>
<text text-anchor="middle" x="844.5" y="-183.3" font-family="FangSong" font-size="14.00">L5 r</text>
<polyline fill="none" stroke="black" points="871.5,-175.5 871.5,-198.5 "/>
<text text-anchor="middle" x="899" y="-183.3" font-family="FangSong" font-size="14.00">L6 r</text>
</g>
<!-- L2_L1 -->
<g id="node2" class="node"><title>L2_L1</title>
<polygon fill="WHITE" stroke="black" points="0,-0.5 0,-138.5 302,-138.5 302,-0.5 0,-0.5"/>
<text text-anchor="middle" x="151" y="-123.3" font-family="FangSong" font-size="14.00">OM(0): L1</text>
<polyline fill="none" stroke="black" points="0,-115.5 302,-115.5 "/>
<text text-anchor="middle" x="151" y="-100.3" font-family="FangSong" font-size="14.00">received value:</text>
<polyline fill="none" stroke="black" points="0,-92.5 302,-92.5 "/>
<text text-anchor="middle" x="28.5" y="-77.3" font-family="FangSong" font-size="14.00">L2:a</text>
<polyline fill="none" stroke="black" points="57,-69.5 57,-92.5 "/>
<text text-anchor="middle" x="86" y="-77.3" font-family="FangSong" font-size="14.00">L3 a</text>
<polyline fill="none" stroke="black" points="115,-69.5 115,-92.5 "/>
<text text-anchor="middle" x="143.5" y="-77.3" font-family="FangSong" font-size="14.00">L4 a</text>
<polyline fill="none" stroke="black" points="172,-69.5 172,-92.5 "/>
<text text-anchor="middle" x="204.5" y="-77.3" font-family="FangSong" font-size="14.00">L5 ?r</text>
<polyline fill="none" stroke="black" points="237,-69.5 237,-92.5 "/>
<text text-anchor="middle" x="269.5" y="-77.3" font-family="FangSong" font-size="14.00">L6 ?a</text>
<polyline fill="none" stroke="black" points="0,-69.5 302,-69.5 "/>
<text text-anchor="middle" x="151" y="-54.3" font-family="FangSong" font-size="14.00">majority(L2=a,L3=a,L4=a,L5=?r,L6=?a)=a</text>
<polyline fill="none" stroke="black" points="0,-46.5 302,-46.5 "/>
<text text-anchor="middle" x="151" y="-31.3" font-family="FangSong" font-size="14.00">calc value:</text>
<polyline fill="none" stroke="black" points="0,-23.5 302,-23.5 "/>
<text text-anchor="middle" x="28.5" y="-8.3" font-family="FangSong" font-size="14.00">L2:a</text>
<polyline fill="none" stroke="black" points="57,-0.5 57,-23.5 "/>
<text text-anchor="middle" x="86" y="-8.3" font-family="FangSong" font-size="14.00">L3 a</text>
<polyline fill="none" stroke="black" points="115,-0.5 115,-23.5 "/>
<text text-anchor="middle" x="143.5" y="-8.3" font-family="FangSong" font-size="14.00">L4 a</text>
<polyline fill="none" stroke="black" points="172,-0.5 172,-23.5 "/>
<text text-anchor="middle" x="204.5" y="-8.3" font-family="FangSong" font-size="14.00">L5 ?r</text>
<polyline fill="none" stroke="black" points="237,-0.5 237,-23.5 "/>
<text text-anchor="middle" x="269.5" y="-8.3" font-family="FangSong" font-size="14.00">L6 ?a</text>
</g>
<!-- L1&#45;&gt;L2_L1 -->
<g id="edge1" class="edge"><title>L1:f1&#45;&gt;L2_L1</title>
<path fill="none" stroke="black" d="M682,-175C682,-135.768 385.099,-147.776 312.183,-138.396"/>
<polygon fill="black" stroke="black" points="312.636,-134.922 302.178,-136.619 311.411,-141.814 312.636,-134.922"/>
</g>
<!-- L3_L1 -->
<g id="node3" class="node"><title>L3_L1</title>
<polygon fill="WHITE" stroke="black" points="320,-0.5 320,-138.5 622,-138.5 622,-0.5 320,-0.5"/>
<text text-anchor="middle" x="471" y="-123.3" font-family="FangSong" font-size="14.00">OM(0): L1</text>
<polyline fill="none" stroke="black" points="320,-115.5 622,-115.5 "/>
<text text-anchor="middle" x="471" y="-100.3" font-family="FangSong" font-size="14.00">received value:</text>
<polyline fill="none" stroke="black" points="320,-92.5 622,-92.5 "/>
<text text-anchor="middle" x="348.5" y="-77.3" font-family="FangSong" font-size="14.00">L3:a</text>
<polyline fill="none" stroke="black" points="377,-69.5 377,-92.5 "/>
<text text-anchor="middle" x="406" y="-77.3" font-family="FangSong" font-size="14.00">L2 a</text>
<polyline fill="none" stroke="black" points="435,-69.5 435,-92.5 "/>
<text text-anchor="middle" x="463.5" y="-77.3" font-family="FangSong" font-size="14.00">L4 a</text>
<polyline fill="none" stroke="black" points="492,-69.5 492,-92.5 "/>
<text text-anchor="middle" x="524.5" y="-77.3" font-family="FangSong" font-size="14.00">L5 ?a</text>
<polyline fill="none" stroke="black" points="557,-69.5 557,-92.5 "/>
<text text-anchor="middle" x="589.5" y="-77.3" font-family="FangSong" font-size="14.00">L6 ?r</text>
<polyline fill="none" stroke="black" points="320,-69.5 622,-69.5 "/>
<text text-anchor="middle" x="471" y="-54.3" font-family="FangSong" font-size="14.00">majority(L3=a,L2=a,L4=a,L5=?a,L6=?r)=a</text>
<polyline fill="none" stroke="black" points="320,-46.5 622,-46.5 "/>
<text text-anchor="middle" x="471" y="-31.3" font-family="FangSong" font-size="14.00">calc value:</text>
<polyline fill="none" stroke="black" points="320,-23.5 622,-23.5 "/>
<text text-anchor="middle" x="348.5" y="-8.3" font-family="FangSong" font-size="14.00">L3:a</text>
<polyline fill="none" stroke="black" points="377,-0.5 377,-23.5 "/>
<text text-anchor="middle" x="406" y="-8.3" font-family="FangSong" font-size="14.00">L2 a</text>
<polyline fill="none" stroke="black" points="435,-0.5 435,-23.5 "/>
<text text-anchor="middle" x="463.5" y="-8.3" font-family="FangSong" font-size="14.00">L4 a</text>
<polyline fill="none" stroke="black" points="492,-0.5 492,-23.5 "/>
<text text-anchor="middle" x="524.5" y="-8.3" font-family="FangSong" font-size="14.00">L5 ?a</text>
<polyline fill="none" stroke="black" points="557,-0.5 557,-23.5 "/>
<text text-anchor="middle" x="589.5" y="-8.3" font-family="FangSong" font-size="14.00">L6 ?r</text>
</g>
<!-- L1&#45;&gt;L3_L1 -->
<g id="edge2" class="edge"><title>L1:f2&#45;&gt;L3_L1</title>
<path fill="none" stroke="black" d="M736,-175C736,-128.557 683.748,-153.357 631.741,-138.735"/>
<polygon fill="black" stroke="black" points="632.639,-135.345 622.045,-135.52 630.435,-141.989 632.639,-135.345"/>
</g>
<!-- L4_L1 -->
<g id="node4" class="node"><title>L4_L1</title>
<polygon fill="WHITE" stroke="black" points="640,-0.5 640,-138.5 942,-138.5 942,-0.5 640,-0.5"/>
<text text-anchor="middle" x="791" y="-123.3" font-family="FangSong" font-size="14.00">OM(0): L1</text>
<polyline fill="none" stroke="black" points="640,-115.5 942,-115.5 "/>
<text text-anchor="middle" x="791" y="-100.3" font-family="FangSong" font-size="14.00">received value:</text>
<polyline fill="none" stroke="black" points="640,-92.5 942,-92.5 "/>
<text text-anchor="middle" x="668.5" y="-77.3" font-family="FangSong" font-size="14.00">L4:a</text>
<polyline fill="none" stroke="black" points="697,-69.5 697,-92.5 "/>
<text text-anchor="middle" x="726" y="-77.3" font-family="FangSong" font-size="14.00">L2 a</text>
<polyline fill="none" stroke="black" points="755,-69.5 755,-92.5 "/>
<text text-anchor="middle" x="783.5" y="-77.3" font-family="FangSong" font-size="14.00">L3 a</text>
<polyline fill="none" stroke="black" points="812,-69.5 812,-92.5 "/>
<text text-anchor="middle" x="844.5" y="-77.3" font-family="FangSong" font-size="14.00">L5 ?a</text>
<polyline fill="none" stroke="black" points="877,-69.5 877,-92.5 "/>
<text text-anchor="middle" x="909.5" y="-77.3" font-family="FangSong" font-size="14.00">L6 ?r</text>
<polyline fill="none" stroke="black" points="640,-69.5 942,-69.5 "/>
<text text-anchor="middle" x="791" y="-54.3" font-family="FangSong" font-size="14.00">majority(L4=a,L2=a,L3=a,L5=?a,L6=?r)=a</text>
<polyline fill="none" stroke="black" points="640,-46.5 942,-46.5 "/>
<text text-anchor="middle" x="791" y="-31.3" font-family="FangSong" font-size="14.00">calc value:</text>
<polyline fill="none" stroke="black" points="640,-23.5 942,-23.5 "/>
<text text-anchor="middle" x="668.5" y="-8.3" font-family="FangSong" font-size="14.00">L4:a</text>
<polyline fill="none" stroke="black" points="697,-0.5 697,-23.5 "/>
<text text-anchor="middle" x="726" y="-8.3" font-family="FangSong" font-size="14.00">L2 a</text>
<polyline fill="none" stroke="black" points="755,-0.5 755,-23.5 "/>
<text text-anchor="middle" x="783.5" y="-8.3" font-family="FangSong" font-size="14.00">L3 a</text>
<polyline fill="none" stroke="black" points="812,-0.5 812,-23.5 "/>
<text text-anchor="middle" x="844.5" y="-8.3" font-family="FangSong" font-size="14.00">L5 ?a</text>
<polyline fill="none" stroke="black" points="877,-0.5 877,-23.5 "/>
<text text-anchor="middle" x="909.5" y="-8.3" font-family="FangSong" font-size="14.00">L6 ?r</text>
</g>
<!-- L1&#45;&gt;L4_L1 -->
<g id="edge3" class="edge"><title>L1:f3&#45;&gt;L4_L1</title>
<path fill="none" stroke="black" d="M791,-175C791,-166.432 791,-157.469 791,-148.548"/>
<polygon fill="black" stroke="black" points="794.5,-148.517 791,-138.517 787.5,-148.517 794.5,-148.517"/>
</g>
<!-- L5_L1 -->
<g id="node5" class="node"><title>L5_L1</title>
<polygon fill="WHITE" stroke="black" points="960,-0.5 960,-138.5 1284,-138.5 1284,-0.5 960,-0.5"/>
<text text-anchor="middle" x="1122" y="-123.3" font-family="FangSong" font-size="14.00">OM(0): L1</text>
<polyline fill="none" stroke="black" points="960,-115.5 1284,-115.5 "/>
<text text-anchor="middle" x="1122" y="-100.3" font-family="FangSong" font-size="14.00">received value:</text>
<polyline fill="none" stroke="black" points="960,-92.5 1284,-92.5 "/>
<text text-anchor="middle" x="992" y="-77.3" font-family="FangSong" font-size="14.00">L5:?a</text>
<polyline fill="none" stroke="black" points="1024,-69.5 1024,-92.5 "/>
<text text-anchor="middle" x="1056.5" y="-77.3" font-family="FangSong" font-size="14.00">L2 ?r</text>
<polyline fill="none" stroke="black" points="1089,-69.5 1089,-92.5 "/>
<text text-anchor="middle" x="1121.5" y="-77.3" font-family="FangSong" font-size="14.00">L3 ?r</text>
<polyline fill="none" stroke="black" points="1154,-69.5 1154,-92.5 "/>
<text text-anchor="middle" x="1186.5" y="-77.3" font-family="FangSong" font-size="14.00">L4 ?a</text>
<polyline fill="none" stroke="black" points="1219,-69.5 1219,-92.5 "/>
<text text-anchor="middle" x="1251.5" y="-77.3" font-family="FangSong" font-size="14.00">L6 ?r</text>
<polyline fill="none" stroke="black" points="960,-69.5 1284,-69.5 "/>
<text text-anchor="middle" x="1122" y="-54.3" font-family="FangSong" font-size="14.00">majority(L5=?a,L2=?r,L3=?r,L4=?a,L6=?r)=r</text>
<polyline fill="none" stroke="black" points="960,-46.5 1284,-46.5 "/>
<text text-anchor="middle" x="1122" y="-31.3" font-family="FangSong" font-size="14.00">calc value:</text>
<polyline fill="none" stroke="black" points="960,-23.5 1284,-23.5 "/>
<text text-anchor="middle" x="992" y="-8.3" font-family="FangSong" font-size="14.00">L5:?a</text>
<polyline fill="none" stroke="black" points="1024,-0.5 1024,-23.5 "/>
<text text-anchor="middle" x="1056.5" y="-8.3" font-family="FangSong" font-size="14.00">L2 ?r</text>
<polyline fill="none" stroke="black" points="1089,-0.5 1089,-23.5 "/>
<text text-anchor="middle" x="1121.5" y="-8.3" font-family="FangSong" font-size="14.00">L3 ?r</text>
<polyline fill="none" stroke="black" points="1154,-0.5 1154,-23.5 "/>
<text text-anchor="middle" x="1186.5" y="-8.3" font-family="FangSong" font-size="14.00">L4 ?a</text>
<polyline fill="none" stroke="black" points="1219,-0.5 1219,-23.5 "/>
<text text-anchor="middle" x="1251.5" y="-8.3" font-family="FangSong" font-size="14.00">L6 ?r</text>
</g>
<!-- L1&#45;&gt;L5_L1 -->
<g id="edge4" class="edge"><title>L1:f4&#45;&gt;L5_L1</title>
<path fill="none" stroke="black" d="M845,-175C845,-128.161 897.585,-152.9 949.869,-138.887"/>
<polygon fill="black" stroke="black" points="951.143,-142.154 959.615,-135.793 949.025,-135.482 951.143,-142.154"/>
</g>
<!-- L6_L1 -->
<g id="node6" class="node"><title>L6_L1</title>
<polygon fill="WHITE" stroke="black" points="1302,-0.5 1302,-138.5 1626,-138.5 1626,-0.5 1302,-0.5"/>
<text text-anchor="middle" x="1464" y="-123.3" font-family="FangSong" font-size="14.00">OM(0): L1</text>
<polyline fill="none" stroke="black" points="1302,-115.5 1626,-115.5 "/>
<text text-anchor="middle" x="1464" y="-100.3" font-family="FangSong" font-size="14.00">received value:</text>
<polyline fill="none" stroke="black" points="1302,-92.5 1626,-92.5 "/>
<text text-anchor="middle" x="1334" y="-77.3" font-family="FangSong" font-size="14.00">L6:?r</text>
<polyline fill="none" stroke="black" points="1366,-69.5 1366,-92.5 "/>
<text text-anchor="middle" x="1398.5" y="-77.3" font-family="FangSong" font-size="14.00">L2 ?r</text>
<polyline fill="none" stroke="black" points="1431,-69.5 1431,-92.5 "/>
<text text-anchor="middle" x="1463.5" y="-77.3" font-family="FangSong" font-size="14.00">L3 ?r</text>
<polyline fill="none" stroke="black" points="1496,-69.5 1496,-92.5 "/>
<text text-anchor="middle" x="1528.5" y="-77.3" font-family="FangSong" font-size="14.00">L4 ?r</text>
<polyline fill="none" stroke="black" points="1561,-69.5 1561,-92.5 "/>
<text text-anchor="middle" x="1593.5" y="-77.3" font-family="FangSong" font-size="14.00">L5 ?r</text>
<polyline fill="none" stroke="black" points="1302,-69.5 1626,-69.5 "/>
<text text-anchor="middle" x="1464" y="-54.3" font-family="FangSong" font-size="14.00">majority(L6=?r,L2=?r,L3=?r,L4=?r,L5=?r)=r</text>
<polyline fill="none" stroke="black" points="1302,-46.5 1626,-46.5 "/>
<text text-anchor="middle" x="1464" y="-31.3" font-family="FangSong" font-size="14.00">calc value:</text>
<polyline fill="none" stroke="black" points="1302,-23.5 1626,-23.5 "/>
<text text-anchor="middle" x="1334" y="-8.3" font-family="FangSong" font-size="14.00">L6:?r</text>
<polyline fill="none" stroke="black" points="1366,-0.5 1366,-23.5 "/>
<text text-anchor="middle" x="1398.5" y="-8.3" font-family="FangSong" font-size="14.00">L2 ?r</text>
<polyline fill="none" stroke="black" points="1431,-0.5 1431,-23.5 "/>
<text text-anchor="middle" x="1463.5" y="-8.3" font-family="FangSong" font-size="14.00">L3 ?r</text>
<polyline fill="none" stroke="black" points="1496,-0.5 1496,-23.5 "/>
<text text-anchor="middle" x="1528.5" y="-8.3" font-family="FangSong" font-size="14.00">L4 ?r</text>
<polyline fill="none" stroke="black" points="1561,-0.5 1561,-23.5 "/>
<text text-anchor="middle" x="1593.5" y="-8.3" font-family="FangSong" font-size="14.00">L5 ?r</text>
</g>
<!-- L1&#45;&gt;L6_L1 -->
<g id="edge5" class="edge"><title>L1:f5&#45;&gt;L6_L1</title>
<path fill="none" stroke="black" d="M928,-186.5C1088.24,-186.5 1132.89,-180.55 1291.74,-139.233"/>
<polygon fill="black" stroke="black" points="1293.07,-142.501 1301.87,-136.591 1291.31,-135.728 1293.07,-142.501"/>
</g>
</g>
</svg>
